<svg width="27" height="17" viewBox="0 0 27 17" fill="none" xmlns="http://www.w3.org/2000/svg">
<g id="Logo Be">
<path id="Fill 46" fill-rule="evenodd" clip-rule="evenodd" d="M7.21787 13.8421C7.55896 13.8421 7.88726 13.8112 8.19424 13.743C8.50762 13.6748 8.78369 13.5661 9.01712 13.4062C9.24949 13.2527 9.44562 13.0416 9.58525 12.7741C9.72595 12.5087 9.79311 12.1633 9.79311 11.7466C9.79311 10.9301 9.56287 10.3492 9.10559 9.9974C8.64832 9.64992 8.03755 9.47724 7.28609 9.47724H3.49251V13.8421H7.21787ZM7.02281 7.09485C7.63997 7.09485 8.15374 6.94882 8.55878 6.65036C8.96063 6.35724 9.15569 5.87331 9.15569 5.20925C9.15569 4.84045 9.0896 4.5356 8.96063 4.29896C8.82526 4.06233 8.64832 3.87793 8.42448 3.74789C8.20064 3.61252 7.94695 3.51978 7.65489 3.46969C7.36709 3.41319 7.06544 3.39187 6.75633 3.39187H3.49251V7.09485H7.02281ZM7.47309 0.690918C8.23202 0.690918 8.9174 0.755938 9.54309 0.892375C10.1645 1.02348 10.6953 1.24413 11.142 1.54578C11.5843 1.8485 11.9297 2.24928 12.178 2.75452C12.4189 3.25337 12.5394 3.87799 12.5394 4.61453C12.5394 5.4129 12.3592 6.08016 11.9968 6.61311C11.6323 7.145 11.0961 7.57989 10.3798 7.91885C11.3551 8.19919 12.0768 8.69377 12.5575 9.39514C13.0382 10.1018 13.2738 10.9482 13.2738 11.9405C13.2738 12.7432 13.1192 13.436 12.8112 14.0169C12.5021 14.6074 12.0789 15.0839 11.5587 15.4527C11.0332 15.8247 10.431 16.0976 9.75521 16.2745C9.08688 16.4515 8.39404 16.5421 7.68308 16.5421H0V0.690918H7.47309Z" fill="#AF48FF"/>
<path id="Fill 47" fill-rule="evenodd" clip-rule="evenodd" d="M22.4775 7.75891C22.1034 7.34534 21.4691 7.12043 20.6942 7.12043C20.1911 7.12043 19.7743 7.20464 19.4418 7.37838C19.1145 7.54893 18.8481 7.75998 18.6423 8.01047C18.4388 8.26415 18.3002 8.5317 18.2181 8.81843C18.1392 9.09876 18.0891 9.35138 18.0763 9.57522H23.2055C23.1288 8.77153 22.8548 8.17675 22.4775 7.75891ZM18.8558 13.7897C19.329 14.2502 20.0112 14.4826 20.8959 14.4826C21.5301 14.4826 22.0791 14.3216 22.5406 14.0008C22.9979 13.681 23.275 13.3389 23.3837 12.9839H26.1604C25.7117 14.3653 25.037 15.3513 24.1118 15.945C23.2015 16.5419 22.0865 16.8372 20.7893 16.8372C19.8865 16.8372 19.0721 16.6922 18.3409 16.4034C17.6129 16.1113 17.0011 15.702 16.4884 15.169C15.9885 14.6339 15.6005 14.0008 15.3223 13.2568C15.0494 12.5181 14.9108 11.6984 14.9108 10.8116C14.9108 9.95247 15.0537 9.15197 15.3351 8.4101C15.6218 7.66716 16.0183 7.02442 16.5353 6.4872C17.0597 5.94678 17.6747 5.51935 18.3964 5.20704C19.1169 4.89686 19.9099 4.74017 20.7893 4.74017C21.7593 4.74017 22.611 4.92777 23.34 5.3083C24.0659 5.6835 24.6618 6.19194 25.1308 6.82829C25.5976 7.46464 25.9313 8.19159 26.1381 9.00701C26.3459 9.8203 26.4184 10.6709 26.3576 11.562H18.0766C18.0766 12.4691 18.3814 13.3271 18.8558 13.7897Z" fill="#AF48FF"/>
<path id="Fill 52" fill-rule="evenodd" clip-rule="evenodd" d="M17.4315 3.15427H23.8546V1.59058H17.4315V3.15427Z" fill="#AF48FF"/>
</g>
</svg>
